<?xml version="1.0" encoding="UTF-8" standalone="no"?>
<svg
   xmlns:dc="http://purl.org/dc/elements/1.1/"
   xmlns:cc="http://creativecommons.org/ns#"
   xmlns:rdf="http://www.w3.org/1999/02/22-rdf-syntax-ns#"
   xmlns:svg="http://www.w3.org/2000/svg"
   xmlns="http://www.w3.org/2000/svg"
   xmlns:sodipodi="http://sodipodi.sourceforge.net/DTD/sodipodi-0.dtd"
   xmlns:inkscape="http://www.inkscape.org/namespaces/inkscape"
   version="1.1"
   width="1024.3346"
   height="471.36612"
   viewBox="0 0 1024.3346 471.36612"
   style="overflow:visible;"
   id="SvgjsSvg1006"
   inkscape:version="0.91 r"
   sodipodi:docname="mouse-keys.svg">
  <metadata
     id="metadata117">
    <rdf:RDF>
      <cc:Work
         rdf:about="">
        <dc:format>image/svg+xml</dc:format>
        <dc:type
           rdf:resource="http://purl.org/dc/dcmitype/StillImage" />
        <dc:title></dc:title>
      </cc:Work>
    </rdf:RDF>
  </metadata>
  <defs
     id="defs115">
    <marker
       inkscape:stockid="Arrow1Mstart"
       orient="auto"
       refY="0.0"
       refX="0.0"
       id="Arrow1Mstart"
       style="overflow:visible"
       inkscape:isstock="true">
      <path
         id="path4245"
         d="M 0.0,0.0 L 5.0,-5.0 L -12.5,0.0 L 5.0,5.0 L 0.0,0.0 z "
         style="fill-rule:evenodd;stroke:#000000;stroke-width:1.0pt"
         transform="scale(0.4) translate(10,0)" />
    </marker>
    <marker
       inkscape:stockid="Arrow1Mend"
       orient="auto"
       refY="0.0"
       refX="0.0"
       id="Arrow1Mend"
       style="overflow:visible;"
       inkscape:isstock="true">
      <path
         id="path4248"
         d="M 0.0,0.0 L 5.0,-5.0 L -12.5,0.0 L 5.0,5.0 L 0.0,0.0 z "
         style="fill-rule:evenodd;stroke:#000000;stroke-width:1.0pt;"
         transform="scale(0.4) rotate(180) translate(10,0)" />
    </marker>
  </defs>
  <sodipodi:namedview
     pagecolor="#ffffff"
     bordercolor="#666666"
     borderopacity="1"
     objecttolerance="10"
     gridtolerance="10"
     guidetolerance="10"
     inkscape:pageopacity="0"
     inkscape:pageshadow="2"
     inkscape:window-width="1920"
     inkscape:window-height="1030"
     id="namedview113"
     showgrid="false"
     inkscape:zoom="1.058248"
     inkscape:cx="349.01499"
     inkscape:cy="118.24767"
     inkscape:window-x="0"
     inkscape:window-y="25"
     inkscape:window-maximized="1"
     inkscape:current-layer="left-parts"
     showborder="false" />
  <g
     fill="#333333"
     transform="translate(0 -580.99607)"
     style="stroke:none;"
     id="root">
    <g
       transform="translate(44.404903 1101.7674)"
       id="right-parts">
      <path
         d="m 951.05862,-431.2832 c 2.791,0 5.32908,2.56086 5.32908,5.3769 l 0,329.455425 c 0,2.816038 -2.53808,5.376898 -5.32908,5.376898 l -370.67909,-0.0013 c -1.77166,0 -3.54347,1.7733 -3.54347,3.545 0,12.895215 0,23.315027 0,34.58266 0,1.7716 1.77181,3.5432 3.54347,3.5432 l 390.67297,1.44e-4 c 0.92804,0 1.85621,-0.147582 2.73944,-0.436358 0.88324,-0.288776 1.72122,-0.718687 2.47277,-1.269152 0.75157,-0.550467 1.41644,-1.221298 1.96201,-1.979608 0.54557,-0.758309 0.97166,-1.603806 1.25787,-2.494964 0.2862,-0.891158 0.43247,-1.827653 0.43247,-2.764016 l 0,-389.434639 c 0,-0.83901 -0.11739,-1.67813 -0.34806,-2.4845 -0.23066,-0.80638 -0.57456,-1.57983 -1.01841,-2.28986 -0.44385,-0.71002 -0.98756,-1.35643 -1.60971,-1.91378 -0.62215,-0.55735 -1.3226,-1.0255 -2.07365,-1.38629 -0.75105,-0.36078 -1.55253,-0.61412 -2.37301,-0.75058 -130.52433,-21.7076 -270.93602,-45.05959 -384.94144,-64.01992 -0.91165,-0.15162 -1.8469,-0.15828 -2.76061,-0.0195 -0.91372,0.13871 -1.8056,0.42276 -2.63265,0.83829 -0.82706,0.41551 -1.58903,0.96236 -2.24949,1.61394 -0.66047,0.65158 -1.21924,1.40768 -1.64996,2.2319 -0.43072,0.82422 -0.73327,1.71631 -0.8936,2.63375 -3.12168,17.84567 -6.23258,35.69325 -9.35634,53.53854 -0.058,0.33171 -0.16187,0.65478 -0.30744,0.95668 -0.14556,0.30189 -0.33275,0.58256 -0.5541,0.83133 -0.22136,0.24877 -0.47683,0.4656 -0.7565,0.64244 -0.27967,0.17685 -0.5835,0.31372 -0.89995,0.40551 -0.31645,0.0919 -0.64548,0.1386 -0.97471,0.1386 l -109.19782,-2e-5 c -0.93043,-10e-6 -1.77697,0.85413 -1.77697,1.79631 10e-6,7.4108 -1e-5,15.64271 0,21.94355 0,0.93909 0.84654,1.79353 1.77697,1.79353 l 495.73901,0"
         id="right-case" />
      <rect
         rx="3.5433071"
         ry="3.5433071"
         x="453.52896"
         y="-427.82285"
         height="63.779526"
         width="63.779526"
         id="a8" />
      <rect
         rx="3.5433071"
         ry="3.5433071"
         x="520.85181"
         y="-427.82285"
         height="63.779526"
         width="63.779526"
         id="a9" />
      <rect
         rx="3.5433071"
         ry="3.5433071"
         x="588.17462"
         y="-427.82285"
         height="63.779526"
         width="63.779526"
         id="a10" />
      <rect
         rx="3.5433071"
         ry="3.5433071"
         x="655.4975"
         y="-427.82285"
         height="63.779526"
         width="63.779526"
         id="a11" />
      <rect
         rx="3.5433071"
         ry="3.5433071"
         x="722.82031"
         y="-427.82285"
         height="63.779526"
         width="63.779526"
         id="a12" />
      <rect
         rx="3.5433071"
         ry="3.5433071"
         x="790.14313"
         y="-427.82285"
         height="63.779526"
         width="63.779526"
         id="a13" />
      <rect
         rx="3.5433071"
         ry="3.5433071"
         x="857.466"
         y="-427.82285"
         height="63.779526"
         width="95.669289"
         id="a14" />
      <rect
         rx="3.5433071"
         ry="3.5433071"
         x="418.09589"
         y="-360.50003"
         height="63.779526"
         width="63.779526"
         id="b7"
         style="fill:#004488;fill-opacity:1" />
      <rect
         rx="3.5433071"
         ry="3.5433071"
         x="485.41873"
         y="-360.50003"
         height="63.779526"
         width="63.779526"
         id="b8"
         style="fill:#004488;fill-opacity:1" />
      <rect
         rx="3.5433071"
         ry="3.5433071"
         x="552.74158"
         y="-360.50003"
         height="63.779526"
         width="63.779526"
         id="b9"
         style="fill:#004488;fill-opacity:1" />
      <rect
         rx="3.5433071"
         ry="3.5433071"
         x="620.06439"
         y="-360.50003"
         height="63.779526"
         width="63.779526"
         id="b10"
         style="fill:#004488;fill-opacity:1" />
      <rect
         rx="3.5433071"
         ry="3.5433071"
         x="687.38727"
         y="-360.50003"
         height="63.779526"
         width="63.779526"
         id="b11" />
      <rect
         rx="3.5433071"
         ry="3.5433071"
         x="754.71008"
         y="-360.50003"
         height="63.779526"
         width="63.779526"
         id="b12" />
      <rect
         rx="3.5433071"
         ry="3.5433071"
         x="822.0329"
         y="-360.50003"
         height="63.779526"
         width="63.779526"
         id="b13" />
      <rect
         rx="3.5433071"
         ry="3.5433071"
         x="889.35571"
         y="-360.50003"
         height="63.779526"
         width="63.779526"
         id="b14" />
      <rect
         rx="3.5433071"
         ry="3.5433071"
         x="435.67072"
         y="-293.17719"
         height="63.779526"
         width="63.779526"
         id="c7"
         style="fill:#004488;fill-opacity:1" />
      <rect
         rx="3.5433071"
         ry="3.5433071"
         x="503.31244"
         y="-293.17719"
         height="63.779526"
         width="63.779526"
         id="c8"
         style="fill:#004488;fill-opacity:1" />
      <rect
         rx="3.5433071"
         ry="3.5433071"
         x="570.95416"
         y="-293.17719"
         height="63.779526"
         width="63.779526"
         id="c9"
         style="fill:#004488;fill-opacity:1" />
      <rect
         rx="3.5433071"
         ry="3.5433071"
         x="638.59589"
         y="-293.17719"
         height="63.779526"
         width="63.779526"
         id="c10"
         style="fill:#004488;fill-opacity:1" />
      <rect
         rx="3.5433071"
         ry="3.5433071"
         x="706.23761"
         y="-293.17719"
         height="63.779526"
         width="63.779526"
         id="c11" />
      <rect
         rx="3.5433071"
         ry="3.5433071"
         x="773.87939"
         y="-293.17719"
         height="63.779526"
         width="63.779526"
         id="c12" />
      <rect
         rx="3.5433071"
         ry="3.5433071"
         x="841.52112"
         y="-293.17719"
         height="63.779526"
         width="111.61417"
         id="c13" />
      <rect
         rx="3.5433071"
         ry="3.5433071"
         x="469.47385"
         y="-225.85435"
         height="63.779526"
         width="63.779526"
         id="d7" />
      <rect
         rx="3.5433071"
         ry="3.5433071"
         x="537.50537"
         y="-225.85435"
         height="63.779526"
         width="63.779526"
         id="d8" />
      <rect
         rx="3.5433071"
         ry="3.5433071"
         x="605.53687"
         y="-225.85435"
         height="63.779526"
         width="63.779526"
         id="d9" />
      <rect
         rx="3.5433071"
         ry="3.5433071"
         x="673.56836"
         y="-225.85435"
         height="63.779526"
         width="63.779526"
         id="d10" />
      <rect
         rx="3.5433071"
         ry="3.5433071"
         x="741.59985"
         y="-225.85435"
         height="63.779526"
         width="63.779526"
         id="d11" />
      <rect
         rx="3.5433071"
         ry="3.5433071"
         x="809.63135"
         y="-225.85435"
         height="63.779526"
         width="143.50394"
         id="d12" />
      <rect
         rx="3.5433071"
         ry="3.5433071"
         x="448.92267"
         y="-158.53151"
         height="63.779526"
         width="124.37008"
         id="e6" />
      <rect
         rx="3.5433071"
         ry="3.5433071"
         x="576.83606"
         y="-158.53151"
         height="63.779526"
         width="79.724411"
         id="e7" />
      <rect
         rx="3.5433071"
         ry="3.5433071"
         x="659.74945"
         y="-158.53151"
         height="63.779526"
         width="79.724411"
         id="e8" />
      <rect
         rx="3.5433071"
         ry="3.5433071"
         x="742.66284"
         y="-158.53151"
         height="63.779526"
         width="79.724411"
         id="e9" />
      <rect
         rx="3.5433071"
         ry="3.5433071"
         x="825.57623"
         y="-158.53151"
         height="63.779526"
         width="127.55905"
         id="e10" />
      <rect
         rx="3.493542"
         ry="3.5433071"
         x="448.92267"
         y="-91.071663"
         height="41.667309"
         width="124.37009"
         id="f2" />
      <text
         y="-352.50870449999996"
         x="584.631343"
         font-size="19"
         id="SvgjsText1101"
         text-anchor="middle"
         font-family="Helvetica"
         fill="#ffffff">
        <tspan
           x="584.631343"
           dy="30.400000000000002"
           id="SvgjsTspan1102">
                    ↑
                </tspan>
      </text>
      <text
         y="-285.1858645"
         x="535.2022029999999"
         font-size="19"
         id="SvgjsText1112"
         text-anchor="middle"
         font-family="Helvetica"
         fill="#ffffff">
        <tspan
           x="535.2022029999999"
           dy="30.400000000000002"
           id="SvgjsTspan1113">
                    ←
                </tspan>
      </text>
      <text
         y="-285.1858645"
         x="602.843923"
         font-size="19"
         id="SvgjsText1114"
         text-anchor="middle"
         font-family="Helvetica"
         fill="#ffffff">
        <tspan
           x="602.843923"
           dy="30.400000000000002"
           id="SvgjsTspan1115">
                    ↓
                </tspan>
      </text>
      <text
         y="-285.1858645"
         x="670.4856530000001"
         font-size="19"
         id="SvgjsText1116"
         text-anchor="middle"
         font-family="Helvetica"
         fill="#ffffff">
        <tspan
           x="670.4856530000001"
           dy="30.400000000000002"
           id="SvgjsTspan1117">
                    →
                </tspan>
      </text>
    </g>
    <g
       transform="translate(221.57008 1101.7666)"
       id="left-parts">
      <path
         d="m 272.81516,-456.8166 -110.96971,0 c -0.32924,0 -0.65827,-0.0468 -0.97472,-0.1386 -0.31645,-0.0918 -0.62027,-0.22866 -0.89995,-0.40551 -0.27968,-0.17684 -0.53514,-0.39367 -0.7565,-0.64244 -0.22135,-0.24877 -0.40854,-0.52944 -0.55411,-0.83133 -0.14558,-0.3019 -0.24947,-0.62497 -0.30744,-0.95668 -3.11169,-17.80554 -6.22337,-35.61107 -9.33505,-53.41661 -0.16174,-0.9255 -0.46824,-1.8252 -0.90498,-2.65546 -0.43675,-0.83027 -1.00365,-1.59085 -1.67347,-2.24448 -0.66982,-0.65363 -1.44238,-1.20007 -2.2801,-1.61231 -0.83772,-0.41224 -1.74031,-0.69012 -2.66354,-0.81983 -0.92322,-0.12971 -1.86673,-0.11121 -2.78423,0.0544 l -352.97851,63.7382 c -0.81059,0.14636 -1.60096,0.40708 -2.34074,0.77257 -0.73979,0.3655 -1.42881,0.83571 -2.04035,1.39272 -0.61154,0.55702 -1.14547,1.20071 -1.58116,1.90622 -0.43571,0.70551 -0.77307,1.47267 -0.99931,2.2718 -0.22626,0.79913 -0.34137,1.63006 -0.34137,2.4609 l 0,389.594539 c 0,0.936363 0.14626,1.872858 0.43247,2.764016 0.2862,0.891158 0.7123,1.736655 1.25787,2.494964 0.54557,0.75831 1.21044,1.429141 1.96201,1.979608 0.75157,0.550465 1.58955,0.980376 2.47279,1.269152 0.88324,0.288776 1.8114,0.436358 2.73944,0.436358 l 342.7307,-1.4e-5 c 1.77165,0 3.54314,-1.7716 3.54314,-3.5432 0,-12.931979 0,-22.981768 0,-34.5827 0,-1.7717 -1.77149,-3.545 -3.54314,-3.545 l -322.73675,0.0013 c -2.79101,0 -5.3291,-2.56086 -5.3291,-5.376898 l 0,-329.455425 c 0,-2.81604 2.53809,-5.3769 5.3291,-5.3769 l 463.75521,0 c 0.93041,0 1.77697,-0.85444 1.77697,-1.79353 0,-7.80504 0,-14.68214 0,-21.94355 0,-0.94218 -0.84656,-1.79632 -1.77697,-1.79632"
         id="left-case" />
      <rect
         rx="3.5433071"
         ry="3.5433071"
         x="-194.89622"
         y="-427.82285"
         height="63.779526"
         width="63.779526"
         id="a1" />
      <rect
         rx="3.5433071"
         ry="3.5433071"
         x="-127.57339"
         y="-427.82285"
         height="63.779526"
         width="63.779526"
         id="a2" />
      <rect
         rx="3.5433071"
         ry="3.5433071"
         x="-60.250557"
         y="-427.82285"
         height="63.779526"
         width="63.779526"
         id="a3" />
      <rect
         rx="3.5433071"
         ry="3.5433071"
         x="7.072278"
         y="-427.82285"
         height="63.779526"
         width="63.779526"
         id="a4" />
      <rect
         rx="3.5433071"
         ry="3.5433071"
         x="74.395111"
         y="-427.82285"
         height="63.779526"
         width="63.779526"
         id="a5" />
      <rect
         rx="3.5433071"
         ry="3.5433071"
         x="141.71794"
         y="-427.82285"
         height="63.779526"
         width="63.779526"
         id="a6" />
      <rect
         rx="3.5433071"
         ry="3.5433071"
         x="209.04079"
         y="-427.82285"
         height="63.779526"
         width="63.779526"
         id="a7" />
      <rect
         rx="3.5433071"
         ry="3.5433071"
         x="-194.89622"
         y="-360.50003"
         height="63.779526"
         width="95.669289"
         id="b1" />
      <rect
         rx="3.5433071"
         ry="3.5433071"
         x="-95.683624"
         y="-360.50003"
         height="63.779526"
         width="63.779526"
         id="b2" />
      <rect
         rx="3.5433071"
         ry="3.5433071"
         x="-28.360792"
         y="-360.50003"
         height="63.779526"
         width="63.779526"
         id="b3" />
      <rect
         rx="3.5433071"
         ry="3.5433071"
         x="38.962044"
         y="-360.50003"
         height="63.779526"
         width="63.779526"
         id="b4" />
      <rect
         rx="3.5433071"
         ry="3.5433071"
         x="106.28487"
         y="-360.50003"
         height="63.779526"
         width="63.779526"
         id="b5" />
      <rect
         rx="3.5433071"
         ry="3.5433071"
         x="173.60771"
         y="-360.50003"
         height="63.779526"
         width="63.779526"
         id="b6" />
      <rect
         fill="#880000"
         rx="3.5433071"
         ry="3.5433071"
         x="-194.89622"
         y="-293.17719"
         height="63.779526"
         width="111.61417"
         id="c1" />
      <rect
         rx="3.5433071"
         ry="3.5433071"
         x="-79.419846"
         y="-293.17719"
         height="63.779526"
         width="63.779526"
         id="c2" />
      <rect
         rx="3.5433071"
         ry="3.5433071"
         x="-11.778116"
         y="-293.17719"
         height="63.779526"
         width="63.779526"
         id="c3"
         style="fill:#004488;fill-opacity:1" />
      <rect
         rx="3.5433071"
         ry="3.5433071"
         x="55.863617"
         y="-293.17719"
         height="63.779526"
         width="63.779526"
         id="c4"
         style="fill:#004488;fill-opacity:1" />
      <rect
         rx="3.5433071"
         ry="3.5433071"
         x="123.50535"
         y="-293.17719"
         height="63.779526"
         width="63.779526"
         id="c5"
         style="fill:#004488;fill-opacity:1" />
      <rect
         rx="3.5433071"
         ry="3.5433071"
         x="191.14708"
         y="-293.17719"
         height="63.779526"
         width="63.779526"
         id="c6" />
      <rect
         rx="3.5433071"
         ry="3.5433071"
         x="-194.89622"
         y="-225.85435"
         height="63.779526"
         width="143.50394"
         id="d1" />
      <rect
         rx="3.5433071"
         ry="3.5433071"
         x="-47.14032"
         y="-225.85435"
         height="63.779526"
         width="63.779526"
         id="d2" />
      <rect
         rx="3.5433071"
         ry="3.5433071"
         x="20.891174"
         y="-225.85435"
         height="63.779526"
         width="63.779526"
         id="d3" />
      <rect
         rx="3.5433071"
         ry="3.5433071"
         x="88.922668"
         y="-225.85435"
         height="63.779526"
         width="63.779526"
         id="d4" />
      <rect
         rx="3.5433071"
         ry="3.5433071"
         x="156.95416"
         y="-225.85435"
         height="63.779526"
         width="63.779526"
         id="d5" />
      <rect
         rx="3.5433071"
         ry="3.5433071"
         x="224.98566"
         y="-225.85435"
         height="63.779526"
         width="63.779526"
         id="d6" />
      <rect
         rx="3.5433071"
         ry="3.5433071"
         x="-194.89622"
         y="-158.53151"
         height="63.779526"
         width="79.724411"
         id="e1" />
      <rect
         rx="3.5433071"
         ry="3.5433071"
         x="-111.98284"
         y="-158.53151"
         height="63.779526"
         width="79.724411"
         id="e2" />
      <rect
         rx="3.5433071"
         ry="3.5433071"
         x="-29.069458"
         y="-158.53151"
         height="63.779526"
         width="79.724411"
         id="e3" />
      <rect
         rx="3.5433071"
         ry="3.5433071"
         x="53.843929"
         y="-158.53151"
         height="63.779526"
         width="79.724411"
         id="e4" />
      <rect
         rx="3.5433071"
         ry="3.5433071"
         x="137.11165"
         y="-158.53151"
         height="63.779526"
         width="131.10236"
         id="e5" />
      <rect
         rx="3.4856062"
         ry="3.5433071"
         x="137.11165"
         y="-91.071709"
         height="41.667309"
         width="131.10236"
         id="f1" />
      <text
         y="-285.1858645"
         x="-139.089135"
         fill="#ffffff"
         text-anchor="middle"
         font-size="19"
         font-family="Helvetica"
         id="SvgjsText1084">
        <tspan
           x="-139.089135"
           dy="30.400000000000002"
           id="SvgjsTspan1085">
                    Mouse
                </tspan>
      </text>
      <text
         y="-340.10022"
         x="272.3295"
         font-size="19"
         id="SvgjsText1092-9"
         style="font-size:19px;font-family:Helvetica;writing-mode:lr-tb;text-anchor:middle;overflow:visible;fill:#ffffff;stroke:none" />
      <text
         xml:space="preserve"
         style="font-style:normal;font-weight:normal;font-size:20px;line-height:125%;font-family:Sans;letter-spacing:0px;word-spacing:0px;writing-mode:lr-tb;fill:#000000;fill-opacity:1;stroke:none;stroke-width:1px;stroke-linecap:butt;stroke-linejoin:miter;stroke-opacity:1"
         x="273.1687"
         y="-335.62997"
         id="text10116"
         sodipodi:linespacing="125%"><tspan
           sodipodi:role="line"
           x="273.1687"
           y="-335.62997"
           id="tspan10120"
           style="font-style:normal;font-variant:normal;font-weight:normal;font-stretch:normal;font-size:19px;font-family:Helvetica;-inkscape-font-specification:Helvetica;text-align:center;text-anchor:middle;fill:#ffffff">scroll</tspan><tspan
           sodipodi:role="line"
           x="273.1687"
           y="-311.87997"
           id="tspan10124"
           style="font-style:normal;font-variant:normal;font-weight:normal;font-stretch:normal;font-size:19px;font-family:Helvetica;-inkscape-font-specification:Helvetica;text-align:center;text-anchor:middle;fill:#ffffff">up</tspan></text>
      <text
         xml:space="preserve"
         style="font-style:normal;font-weight:normal;font-size:20px;line-height:125%;font-family:Sans;letter-spacing:0px;word-spacing:0px;writing-mode:lr-tb;overflow:visible;fill:#000000;fill-opacity:1;stroke:none;stroke-width:1px;stroke-linecap:butt;stroke-linejoin:miter;stroke-opacity:1"
         x="290.80988"
         y="-266.45462"
         id="text10116-4"
         sodipodi:linespacing="125%"><tspan
           sodipodi:role="line"
           x="290.80988"
           y="-266.45462"
           id="tspan10120-4"
           style="font-style:normal;font-variant:normal;font-weight:normal;font-stretch:normal;font-size:19px;font-family:Helvetica;-inkscape-font-specification:Helvetica;text-align:center;text-anchor:middle;fill:#ffffff">scroll</tspan><tspan
           sodipodi:role="line"
           x="290.80988"
           y="-242.70462"
           id="tspan10124-5"
           style="font-style:normal;font-variant:normal;font-weight:normal;font-stretch:normal;font-size:19px;font-family:Helvetica;-inkscape-font-specification:Helvetica;text-align:center;text-anchor:middle;fill:#ffffff">down</tspan></text>
      <text
         xml:space="preserve"
         style="font-style:normal;font-weight:normal;font-size:20px;line-height:125%;font-family:Sans;letter-spacing:0px;word-spacing:0px;writing-mode:lr-tb;overflow:visible;fill:#000000;fill-opacity:1;stroke:none;stroke-width:1px;stroke-linecap:butt;stroke-linejoin:miter;stroke-opacity:1"
         x="340.49155"
         y="-333.77747"
         id="text10116-0"
         sodipodi:linespacing="125%"><tspan
           sodipodi:role="line"
           x="340.49155"
           y="-333.77747"
           id="tspan10120-2"
           style="font-style:normal;font-variant:normal;font-weight:normal;font-stretch:normal;font-size:19px;font-family:Helvetica;-inkscape-font-specification:Helvetica;text-align:center;text-anchor:middle;fill:#ffffff">scroll</tspan><tspan
           sodipodi:role="line"
           x="340.49155"
           y="-310.02747"
           id="tspan10124-4"
           style="font-style:normal;font-variant:normal;font-weight:normal;font-stretch:normal;font-size:19px;font-family:Helvetica;-inkscape-font-specification:Helvetica;text-align:center;text-anchor:middle;fill:#ffffff">left</tspan></text>
      <text
         xml:space="preserve"
         style="font-style:normal;font-weight:normal;font-size:20px;line-height:125%;font-family:Sans;letter-spacing:0px;word-spacing:0px;writing-mode:lr-tb;overflow:visible;fill:#000000;fill-opacity:1;stroke:none;stroke-width:1px;stroke-linecap:butt;stroke-linejoin:miter;stroke-opacity:1"
         x="475.13721"
         y="-335.62997"
         id="text10116-7"
         sodipodi:linespacing="125%"><tspan
           sodipodi:role="line"
           x="475.13721"
           y="-335.62997"
           id="tspan10120-6"
           style="font-style:normal;font-variant:normal;font-weight:normal;font-stretch:normal;font-size:19px;font-family:Helvetica;-inkscape-font-specification:Helvetica;text-align:center;text-anchor:middle;fill:#ffffff">scroll</tspan><tspan
           sodipodi:role="line"
           x="475.13721"
           y="-311.87997"
           id="tspan10124-1"
           style="font-style:normal;font-variant:normal;font-weight:normal;font-stretch:normal;font-size:19px;font-family:Helvetica;-inkscape-font-specification:Helvetica;text-align:center;text-anchor:middle;fill:#ffffff">right</tspan></text>
      <text
         xml:space="preserve"
         style="font-style:normal;font-weight:normal;font-size:20px;line-height:125%;font-family:Sans;letter-spacing:0px;word-spacing:0px;writing-mode:lr-tb;overflow:visible;fill:#000000;fill-opacity:1;stroke:none;stroke-width:1px;stroke-linecap:butt;stroke-linejoin:miter;stroke-opacity:1"
         x="19.798147"
         y="-266.45541"
         id="text10116-3"
         sodipodi:linespacing="125%"><tspan
           sodipodi:role="line"
           x="19.798147"
           y="-266.45541"
           id="tspan10124-3"
           style="font-style:normal;font-variant:normal;font-weight:normal;font-stretch:normal;font-size:19px;font-family:Helvetica;-inkscape-font-specification:Helvetica;text-align:center;text-anchor:middle;fill:#ffffff">right</tspan><tspan
           sodipodi:role="line"
           x="19.798147"
           y="-242.70543"
           style="font-style:normal;font-variant:normal;font-weight:normal;font-stretch:normal;font-size:19px;font-family:Helvetica;-inkscape-font-specification:Helvetica;text-align:center;text-anchor:middle;fill:#ffffff"
           id="tspan10281">click</tspan></text>
      <text
         xml:space="preserve"
         style="font-style:normal;font-weight:normal;font-size:20px;line-height:125%;font-family:Sans;letter-spacing:0px;word-spacing:0px;writing-mode:lr-tb;overflow:visible;fill:#000000;fill-opacity:1;stroke:none;stroke-width:1px;stroke-linecap:butt;stroke-linejoin:miter;stroke-opacity:1"
         x="87.502968"
         y="-266.45541"
         id="text10116-5"
         sodipodi:linespacing="125%"><tspan
           sodipodi:role="line"
           x="87.502968"
           y="-266.45541"
           id="tspan10120-20"
           style="font-style:normal;font-variant:normal;font-weight:normal;font-stretch:normal;font-size:19px;font-family:Helvetica;-inkscape-font-specification:Helvetica;text-align:center;text-anchor:middle;fill:#ffffff">middle</tspan><tspan
           sodipodi:role="line"
           x="87.502968"
           y="-242.70543"
           id="tspan10124-50"
           style="font-style:normal;font-variant:normal;font-weight:normal;font-stretch:normal;font-size:19px;font-family:Helvetica;-inkscape-font-specification:Helvetica;text-align:center;text-anchor:middle;fill:#ffffff">click</tspan></text>
      <text
         xml:space="preserve"
         style="font-style:normal;font-weight:normal;font-size:20px;line-height:125%;font-family:Sans;letter-spacing:0px;word-spacing:0px;writing-mode:lr-tb;overflow:visible;fill:#000000;fill-opacity:1;stroke:none;stroke-width:1px;stroke-linecap:butt;stroke-linejoin:miter;stroke-opacity:1"
         x="155.0816"
         y="-266.42691"
         id="text10116-2"
         sodipodi:linespacing="125%"><tspan
           sodipodi:role="line"
           x="155.0816"
           y="-266.42691"
           id="tspan10120-5"
           style="font-style:normal;font-variant:normal;font-weight:normal;font-stretch:normal;font-size:19px;font-family:Helvetica;-inkscape-font-specification:Helvetica;text-align:center;text-anchor:middle;fill:#ffffff">left</tspan><tspan
           sodipodi:role="line"
           x="155.0816"
           y="-242.67693"
           style="font-style:normal;font-variant:normal;font-weight:normal;font-stretch:normal;font-size:19px;font-family:Helvetica;-inkscape-font-specification:Helvetica;text-align:center;text-anchor:middle;fill:#ffffff"
           id="tspan10283">click</tspan></text>
    </g>
    <path
       style="opacity:1;fill:none;fill-opacity:1;fill-rule:nonzero;stroke:#ff0000;stroke-width:3.5309999;stroke-linecap:round;stroke-linejoin:round;stroke-miterlimit:3;stroke-dasharray:none;stroke-dashoffset:4.20029926;stroke-opacity:0.94117647"
       d="m 496.17039,646.73514 -0.0154,87.47881 c -0.0282,2.83915 -2.3278,5.18818 -5.02766,5.24724 l -25.13,0 c -2.77655,0.0616 -5.07351,2.13273 -5.28022,5.00708 l 0,57.19878 c 0.0294,2.57204 2.14148,5.06074 5.11323,5.16514 l 7.4127,0 c 2.39778,0.0855 4.80676,2.26923 4.98173,4.73249 l 0.093,57.44617 c 0.076,2.80531 2.30514,5.04275 5.20558,5.13134 l 23.33781,0 c 2.53054,0.0347 4.93683,1.89336 5.22467,4.86728 l -0.0508,57.90266 c -0.42983,2.73003 -2.60342,4.37083 -4.77711,4.517 l -10.79541,0 c -2.40379,0.0627 -4.90328,2.14723 -4.96231,5.3178 l 0.0514,103.81727"
       id="path4233"
       inkscape:connector-curvature="0"
       sodipodi:nodetypes="cccccccccccccccccc" />
  </g>
</svg>
